<?xml version="1.0" encoding="utf-8"?>
<!-- Generator: Adobe Illustrator 18.1.1, SVG Export Plug-In . SVG Version: 6.00 Build 0)  -->
<svg version="1.1" id="Layer_1" xmlns="http://www.w3.org/2000/svg" xmlns:xlink="http://www.w3.org/1999/xlink" x="0px" y="0px"
	 width="471.6px" height="61.6px" viewBox="0 0 471.6 61.6" enable-background="new 0 0 471.6 61.6" xml:space="preserve">
<g>
	<g>
		<polygon fill="#FFFFFF" points="61.4,24.8 38.6,24.8 58.8,4.6 58.8,18.2 61.5,18.2 61.5,0.1 43.3,0.1 43.3,2.7 56.9,2.7 
			36.7,22.9 36.7,0 34.1,0 34.1,27.5 61.4,27.5 		"/>
	</g>
	<g>
		<polygon fill="#FFFFFF" points="0,36.8 23,36.8 2.8,57 2.8,43.4 0.1,43.4 0.1,61.6 18.3,61.6 18.3,58.9 4.7,58.9 24.9,38.7 
			24.9,61.5 27.5,61.5 27.5,34.2 0,34.2 		"/>
	</g>
	<g>
		<polygon fill="#FFFFFF" points="24.9,22.9 4.7,2.7 18.3,2.7 18.3,0.1 0.1,0.1 0.1,18.2 2.8,18.2 2.8,4.6 23,24.8 0,24.8 0,27.5 
			27.5,27.5 27.5,0 24.9,0 		"/>
	</g>
	<g>
		<polygon fill="#FFFFFF" points="58.8,43.4 58.8,57 38.6,36.8 61.4,36.8 61.4,34.2 34.1,34.2 34.1,61.5 36.7,61.5 36.7,38.7 
			56.9,58.9 43.3,58.9 43.3,61.6 61.5,61.6 61.5,43.4 		"/>
	</g>
	<g>
		<path fill="#FFFFFF" d="M101.9,20.8c-1.9,0-3.4,0.1-5.6,0.3v18.6c2.3,0.2,3.6,0.3,5.8,0.3c7.9,0,11.4-4.2,11.4-9.8
			C113.5,24.9,109.8,20.8,101.9,20.8z M102.8,36.1c-1,0-1.3,0-2.1-0.1V24.8c0.7-0.1,1.1-0.1,1.8-0.1c4.1,0,6.3,2.1,6.3,5.5
			C108.8,33.8,106.9,36.1,102.8,36.1z"/>
		<rect x="122.3" y="20.9" fill="#FFFFFF" width="4.4" height="19"/>
		<path fill="#FFFFFF" d="M143.6,28.7c-2.4-1-3.3-1.4-3.3-2.7c0-0.8,0.6-1.5,2.3-1.5c1.3,0,3.1,0.8,4.2,1.6l1.1-3.9
			c-1.1-0.8-3.2-1.5-5.3-1.5c-4.4,0-6.7,2.7-6.7,5.5c0,2.3,1.2,4.2,4.5,5.6c2.9,1.2,3.4,1.8,3.4,2.8c0,0.9-0.6,1.7-2.1,1.7
			c-1.8,0-3.8-0.7-5.3-1.8l-1.2,4c1.7,1.1,4.2,1.9,6.4,1.9c4.6,0,6.8-2.9,6.8-5.9C148.2,31.9,147.1,30.2,143.6,28.7z"/>
		<polygon fill="#FFFFFF" points="155.3,25 161,25 161,39.9 165.4,39.9 165.4,25 171.1,25 171.1,20.9 155.3,20.9 		"/>
		<path fill="#FFFFFF" d="M192.7,27.1c0-3.5-2.3-6.3-8.2-6.3c-2.2,0-4,0.1-5.6,0.3v18.8h4.4v-6.2c0.6,0,1,0.1,1.6,0.1
			c0.3,0,0.5,0,0.8,0l3.2,6.2h5l-4.5-7.3C191.5,31.3,192.7,29.3,192.7,27.1z M184.7,30.2c-0.5,0-0.8,0-1.4-0.1v-5.2
			c0.6-0.1,1-0.1,1.7-0.1c1.9,0,3.1,0.9,3.1,2.5C188.2,29.1,186.8,30.2,184.7,30.2z"/>
		<rect x="201.8" y="20.9" fill="#FFFFFF" width="4.4" height="19"/>
		<path fill="#FFFFFF" d="M226.1,30.1c2.1-0.9,3.3-2.2,3.3-4.2c0-2.6-2.8-5.1-8.3-5.1c-1.6,0-3.9,0.2-5.3,0.4v18.5
			c1.9,0.2,4,0.4,5.7,0.4c5.7,0,8.5-2.6,8.5-5.6C229.9,32.3,228.7,30.8,226.1,30.1z M220,24.7c0.6-0.1,1.2-0.2,2-0.2
			c1.9,0,2.8,0.9,2.8,2.1c0,1.4-1.1,2.1-3.2,2.1c-0.8,0-1.1,0-1.6-0.1V24.7z M221.9,36.3c-0.9,0-1.2,0-1.8-0.1v-4.4
			c0.4-0.1,1-0.1,1.7-0.1c2.3,0,3.5,0.8,3.5,2.3C225.2,35.5,224.1,36.3,221.9,36.3z"/>
		<path fill="#FFFFFF" d="M250,31.9c0,2.7-1.1,4.3-3.6,4.3c-2.5,0-3.7-1.6-3.7-4.3v-11h-4.4v11.3c0,5.3,2.8,8,7.9,8
			c5.1,0,8.1-2.7,8.1-8V20.9H250V31.9z"/>
		<polygon fill="#FFFFFF" points="262.1,25 267.8,25 267.8,39.9 272.2,39.9 272.2,25 277.9,25 277.9,20.9 262.1,20.9 		"/>
		<polygon fill="#FFFFFF" points="285.8,39.9 297.8,39.9 297.8,35.9 290.2,35.9 290.2,32.2 297.1,32.2 297.1,28.3 290.2,28.3 
			290.2,25 297.8,25 297.8,20.9 285.8,20.9 		"/>
		<path fill="#FFFFFF" d="M312.7,20.8c-1.9,0-3.4,0.1-5.6,0.3v18.6c2.3,0.2,3.6,0.3,5.8,0.3c7.9,0,11.4-4.2,11.4-9.8
			C324.2,24.9,320.5,20.8,312.7,20.8z M313.5,36.1c-1,0-1.3,0-2.1-0.1V24.8c0.7-0.1,1.1-0.1,1.8-0.1c4.1,0,6.3,2.1,6.3,5.5
			C319.5,33.8,317.7,36.1,313.5,36.1z"/>
		<path fill="#FFFFFF" d="M343.9,23.3c1.5,0,3.5,0.6,5.1,1.5l0.5,0.3l1.2-2.6l-0.4-0.2c-0.9-0.5-3.2-1.8-6.3-1.8
			c-5.8,0-10.1,4.3-10.1,9.9c0,5.7,4.3,9.9,10.1,9.9c3,0,5.4-1.3,6.3-1.8l0.4-0.2l-1-2.6l-0.5,0.3c-1.6,0.9-3.6,1.5-5.1,1.5
			c-4.2,0-7-2.8-7-7C337.1,26.1,339.8,23.3,343.9,23.3z"/>
		<polygon fill="#FFFFFF" points="371.3,28.8 362.6,28.8 362.6,20.7 359.6,20.7 359.6,39.9 362.6,39.9 362.6,31.6 371.3,31.6 
			371.3,39.9 374.3,39.9 374.3,20.7 371.3,20.7 		"/>
		<path fill="#FFFFFF" d="M396.5,32.7c0,3.9-2.4,4.7-4.4,4.7c-2.8,0-4.3-1.6-4.3-4.7v-12h-3v12.2c0,4.5,2.8,7.3,7.3,7.3
			c4.4,0,7.4-2.9,7.4-7.3V20.7h-3V32.7z"/>
		<path fill="#FFFFFF" d="M422.2,26.5c0-3.7-2.9-6-7.5-6c-1.7,0-3.2,0.2-4.3,0.3l-0.4,0.1v18.9h3v-7.1c0.5,0,1.1,0,1.6,0
			c0.3,0,0.6,0,1,0l4.8,7.2h3.6l-5.5-7.8C420.9,31.1,422.2,29.1,422.2,26.5z M419.1,26.7c0,2.3-1.5,3.4-4.4,3.4
			c-0.5,0-1.2,0-1.7-0.1v-6.5c0.5-0.1,1.2-0.1,2-0.1C417.5,23.4,419.1,24.6,419.1,26.7z"/>
		<path fill="#FFFFFF" d="M441.2,23.3c1.5,0,3.5,0.6,5.1,1.5l0.5,0.3l1.2-2.6l-0.4-0.2c-0.9-0.5-3.2-1.8-6.3-1.8
			c-5.8,0-10.1,4.3-10.1,9.9c0,5.7,4.3,9.9,10.1,9.9c3,0,5.4-1.3,6.3-1.8l0.4-0.2l-1-2.6l-0.5,0.3c-1.6,0.9-3.6,1.5-5.1,1.5
			c-4.2,0-7-2.8-7-7C434.4,26.1,437.1,23.3,441.2,23.3z"/>
		<polygon fill="#FFFFFF" points="468.6,20.7 468.6,28.8 459.9,28.8 459.9,20.7 456.9,20.7 456.9,39.9 459.9,39.9 459.9,31.6 
			468.6,31.6 468.6,39.9 471.6,39.9 471.6,20.7 		"/>
	</g>
</g>
</svg>
